<svg id="_x33_0" enable-background="new 0 0 64 64" height="512" viewBox="0 0 64 64" width="512" xmlns="http://www.w3.org/2000/svg"><g><path d="m14 53c-1.654 0-3 1.346-3 3s1.346 3 3 3 3-1.346 3-3-1.346-3-3-3zm0 4c-.551 0-1-.448-1-1s.449-1 1-1 1 .448 1 1-.449 1-1 1z"/><path d="m38 53c-1.654 0-3 1.346-3 3s1.346 3 3 3 3-1.346 3-3-1.346-3-3-3zm0 4c-.551 0-1-.448-1-1s.449-1 1-1 1 .448 1 1-.449 1-1 1z"/><path d="m49 49h-.117l-1.343-10.744c-.374-2.996-2.934-5.256-5.954-5.256h-8.586v-5c0-1.654-1.346-3-3-3h-24c-1.654 0-3 1.346-3 3v21c-1.103 0-2 .897-2 2v2c0 1.103.897 2 2 2h4.08c-.047.328-.08.66-.08 1 0 3.859 3.14 7 7 7s7-3.141 7-7c0-.34-.033-.672-.08-1h10.16c-.047.328-.08.66-.08 1 0 3.859 3.14 7 7 7s7-3.141 7-7c0-.34-.033-.672-.08-1h4.08c1.103 0 2-.897 2-2v-2c0-1.103-.897-2-2-2zm-3.383-10 .25 2h-6.867v-2zm-4.031-4c1.462 0 2.754.8 3.452 2h-8.038v6h9.117l.75 6h-13.867v-14zm-22.586-6v4h-2v-4h-2v4h-2v-6h10v6h-2v-4zm-14-1c0-.551.449-1 1-1h5v6c0 1.103.897 2 2 2h10c1.103 0 2-.897 2-2v-6h5c.551 0 1 .449 1 1v21h-26zm-2 25v-2h6.111c-.587.574-1.068 1.251-1.425 2zm11 8c-2.757 0-5-2.243-5-5s2.243-5 5-5 5 2.243 5 5-2.243 5-5 5zm6.315-8c-.357-.749-.839-1.426-1.425-2h14.221c-.587.574-1.068 1.251-1.425 2zm17.685 8c-2.757 0-5-2.243-5-5s2.243-5 5-5 5 2.243 5 5-2.243 5-5 5zm11-8h-4.685c-.357-.749-.839-1.426-1.425-2h6.11z"/><path d="m29 41h-12v6h12zm-2 4h-8v-2h8z"/><path d="m45.715 6h-20.715v-5.245l-12.495 11.245 12.495 11.245v-5.245h19.043c4.939 0 8.957 4.018 8.957 8.957 0 1.22-.244 2.407-.724 3.528l-2.071 4.832c-.136.316-.205.653-.205.998v.149c0 1.398 1.137 2.536 2.535 2.536.502 0 .988-.147 1.406-.426l1.362-.908c4.82-3.212 7.697-8.588 7.697-14.381 0-9.531-7.754-17.285-17.285-17.285zm8.479 30.002-1.362.908c-.335.222-.832-.045-.832-.445v-.149c0-.073.015-.145.043-.212l2.071-4.831c.588-1.372.886-2.824.886-4.316 0-6.042-4.915-10.957-10.957-10.957h-21.043v2.755l-7.505-6.755 7.505-6.755v2.755h22.715c8.429 0 15.285 6.856 15.285 15.285 0 5.122-2.544 9.876-6.806 12.717z"/><path d="m37 25h2v2h-2z"/><path d="m41 25h2v2h-2z"/><path d="m45 25h2v2h-2z"/></g></svg>